# xmcd
#
# Track frame offsets: 
#        150
#        20962
#        44490
#        65298
#        86470
#        107558
#        124018
#        140034
#        162602
#        184878
#        207270
#        220510
#        241782
#        258530
#
# Disc length: 3707 seconds
#
# Revision: 0
# Processed by: cddbd v1.5.2PL0 Copyright (c) Steve Scherf et al.
# Submitted via: ExactAudioCopyFreeDBPlugin 1.0
#
DISCID=cd0e790e
DTITLE=群星 - DTS 声醉如境B
DYEAR=2010
DGENRE=Acid
TTITLE0=恰似你的温柔
TTITLE1=情人眼泪
TTITLE2=女人花
TTITLE3=追梦人
TTITLE4=爱的代价
TTITLE5=飘摇
TTITLE6=路边的野花不要采
TTITLE7=城里的月光
TTITLE8=老情歌
TTITLE9=哭砂
TTITLE10=南海姑娘
TTITLE11=领悟
TTITLE12=梦醒时分
TTITLE13=容易受伤的女人
EXTD=
EXTT0=
EXTT1=
EXTT2=
EXTT3=
EXTT4=
EXTT5=
EXTT6=
EXTT7=
EXTT8=
EXTT9=
EXTT10=
EXTT11=
EXTT12=
EXTT13=
PLAYORDER=
